<svg xmlns="http://www.w3.org/2000/svg" width="60.454" height="18" viewBox="0 0 60.454 18"><g transform="translate(-9.855 -33.769)"><g transform="translate(53.964 38.044)"><path d="M154.2,47.53h-1.79a.6.6,0,0,0-.6.6V60.566a.6.6,0,0,0,.6.6H154.2a.6.6,0,0,0,.6-.6V48.126a.6.6,0,0,0-.6-.6" transform="translate(-151.813 -47.53)" fill="#fff"/></g><path d="M45.735,45.665c.014.038.031.074.045.111h0c.013.039.024.076.037.114a8.934,8.934,0,0,0,16.8-6.071c-.014-.038-.031-.074-.046-.112h0c-.013-.038-.025-.076-.039-.113a8.933,8.933,0,0,0-16.8,6.071Zm14.176-5.121c.014.038.023.076.036.114h0c.015.037.032.073.045.112a6.14,6.14,0,0,1-11.548,4.172c-.014-.038-.023-.077-.036-.115h0c-.014-.037-.031-.073-.045-.111a6.14,6.14,0,0,1,11.548-4.172Z" transform="translate(-24.37)" fill="#fff"/><g transform="translate(59.855 33.906)"><path d="M179.64,49.278a6.137,6.137,0,0,1,0-12.273V34.211a8.931,8.931,0,0,0,0,17.862Z" transform="translate(-170.77 -34.211)" fill="#fff"/></g><g transform="translate(9.855 33.906)"><path d="M18.725,49.278a6.137,6.137,0,0,1,0-12.273V34.211a8.931,8.931,0,0,0,0,17.862Z" transform="translate(-9.855 -34.211)" fill="#fff"/></g><path d="M195.743,57.413a1.5,1.5,0,1,1-.882,1.926A1.5,1.5,0,0,1,195.743,57.413Z" transform="translate(-127.455 -16.232)" fill="#fff"/><path d="M152.548,34.165a1.5,1.5,0,1,1-.612,2.029A1.5,1.5,0,0,1,152.548,34.165Z" transform="translate(-97.81 -0.151)" fill="#fff"/><g transform="translate(41.643 33.811)"><path d="M112.16,48.973a6.136,6.136,0,0,0,0-12.272v-2.8a8.932,8.932,0,0,1,0,17.864Z" transform="translate(-112.16 -33.906)" fill="#fff"/></g><path d="M112.16,56.772v3.046a1.524,1.524,0,0,0,0-3.046Z" transform="translate(-70.517 -15.856)" fill="#fff"/></g></svg>