<svg xmlns="http://www.w3.org/2000/svg" width="80" height="101.104" viewBox="0 0 80 101.104"><path d="M43.976,101.052C36.781,100.737,4.653,94.942.4,91.575c-3.067-2.428,12.489-85.652,13.482-88.6C16.457-4.684,61.7,4.461,66.96,7.955,73.75,12.462,79.931,18.126,80,29.716c.043,7.275-5.474,16.777-10.9,19.724,6.709,4.7,12.8,14.452,7.96,31.682-4.729,16.819-20.5,20.481-33.082,19.93m-4.3-75.715c-1.756,1-3.633,9.91-1.691,11.874,2.083,1.173,12.817,3.94,13.35-4.947.331-5.523-9.307-8.262-11.658-6.926M29.615,75.284c.537,2.384,17.513,4.636,18.662-7.516.292-3.093-5.737-10.641-14.959-10.294-3.018.853-4.27,15.549-3.7,17.811" transform="translate(0 0)" fill="#7fb221"/></svg>