<svg xmlns="http://www.w3.org/2000/svg" width="30" height="30" viewBox="0 0 30 30"><g transform="translate(-3.375 -3.375)"><path d="M10.388,14.825a1.4,1.4,0,0,0,0,1.969l6.9,6.88a1.39,1.39,0,0,0,1.918.043l6.8-6.779a1.39,1.39,0,1,0-1.962-1.969l-5.841,5.755-5.849-5.906A1.391,1.391,0,0,0,10.388,14.825Z" transform="translate(0.169 0.283)" fill="#fff"/><path d="M3.375,18.375a15,15,0,1,0,15-15A15,15,0,0,0,3.375,18.375ZM27.346,9.4A12.687,12.687,0,1,1,9.4,27.346,12.687,12.687,0,1,1,27.346,9.4Z" fill="#fff"/></g></svg>