<svg xmlns="http://www.w3.org/2000/svg" width="80" height="87.781" viewBox="0 0 80 87.781"><path d="M.5,87.22c-2.156-2.6,3.158-69.493,7.515-77.368s26.823-12.329,32.418-8.4C45.048,4.7,81.094,67.341,79.974,70.086c-1.428,3.5-23.544,8.351-25.91,7.4-2.658-1.074-7.129-12.483-8.483-13.6-.8-.66-13.907,2.3-15.086,3.58-1.02,1.106-1.91,12.828-3.671,15.35C25.18,85.169,2.206,89.283.5,87.22m30.8-55.262c-3.236,1.278-5.183,13.914-4.044,15.028,1.157,1.131,11.319-.452,11.986-2.081.658-1.609-6.1-13.674-7.942-12.946" transform="translate(0 0)" fill="#fab700"/></svg>