<svg xmlns="http://www.w3.org/2000/svg" width="115.985" height="119.435" viewBox="0 0 115.985 119.435"><path d="M41.276,32.039c-5.674,3.349-10.016,10.74-7.2,17.176C38.091,58.4,59.48,61.389,63.291,65.651c3.789,4.237-3.406,24.864-10.876,25.189-7.15.31-34.5-10.169-41.227-18.086C1.016,60.781-4.3,49.018,4.318,26.588,9.4,13.356,19.876,5.649,31.772,1.708s33.4-1.086,45.8,8.852c3.565,2.858,2.748,10.3.466,15.554-2.765,6.362-6.717,10.029-10.815,8.725-10.854-3.455-20.143-6.227-25.947-2.8" transform="matrix(0.848, -0.53, 0.53, 0.848, 0, 42.393)" fill="#d300d8"/></svg>