<svg xmlns="http://www.w3.org/2000/svg" xmlns:xlink="http://www.w3.org/1999/xlink" width="70" height="70" viewBox="0 0 70 70"><defs><filter id="a" x="0" y="0" width="70" height="70" filterUnits="userSpaceOnUse"><feOffset dy="3" input="SourceAlpha"/><feGaussianBlur stdDeviation="3" result="b"/><feFlood flood-opacity="0.161"/><feComposite operator="in" in2="b"/><feComposite in="SourceGraphic"/></filter></defs><g transform="translate(8.968 5.978)"><g transform="matrix(1, 0, 0, 1, -8.97, -5.98)" filter="url(#a)"><rect width="52" height="52" rx="10" transform="translate(9 6)" fill="#fff"/></g><g transform="translate(5.114 4.905)"><path d="M34.241,8a8.773,8.773,0,0,1,8.747,8.747V34.241a8.773,8.773,0,0,1-8.747,8.747H16.746A8.773,8.773,0,0,1,8,34.241V16.746A8.773,8.773,0,0,1,16.746,8H34.241m0-3.5H16.746A12.282,12.282,0,0,0,4.5,16.746V34.241A12.282,12.282,0,0,0,16.746,46.487H34.241A12.282,12.282,0,0,0,46.487,34.241V16.746A12.282,12.282,0,0,0,34.241,4.5Z" transform="translate(-4.5 -4.5)" fill="#d300d8"/><path d="M26.249,14.248a2.624,2.624,0,1,1,2.624-2.624A2.618,2.618,0,0,1,26.249,14.248Z" transform="translate(6.116 -2.002)" fill="#d300d8"/><path d="M21.747,14.749a7,7,0,1,1-7,7,7,7,0,0,1,7-7m0-3.5a10.5,10.5,0,1,0,10.5,10.5,10.5,10.5,0,0,0-10.5-10.5Z" transform="translate(-0.753 -0.753)" fill="#d300d8"/></g></g></svg>