<svg xmlns="http://www.w3.org/2000/svg" xmlns:xlink="http://www.w3.org/1999/xlink" width="199.054" height="129.766" viewBox="0 0 199.054 129.766"><defs><clipPath id="a"><rect width="199.054" height="129.766" fill="none"/></clipPath></defs><g clip-path="url(#a)"><path d="M569.525.136S529,37.275,488,63.979l-3.835-34.593c1.109-3.031,84.211-31.512,85.359-29.25" transform="translate(-371.175 -0.006)" fill="#e59f00"/><path d="M577.419,30.235S545.01,62.921,500.6,87.071l8.811-23.26c2.77-1.112,66.86-35.835,68.011-33.575" transform="translate(-383.772 -23.098)" fill="#c69100"/><path d="M494.454.556A635.384,635.384,0,0,1,409.1,29.806l-22.853-9.931c9.467-2.2,98.739-17.727,108.211-19.319" transform="translate(-296.105 -0.426)" fill="#ffca1a"/><path d="M611.769,0s-14.386,18.619-47.041,57.491L538.351,40.712C542.665,37.392,604.683,3.7,611.769,0" transform="translate(-412.715)" fill="#ffca1a"/><path d="M4.436,548.414c-1.119-.049-2.334-.116-3.494-.2a1.017,1.017,0,1,1,.151-2.029c1.137.087,2.258.151,3.354.2a1.018,1.018,0,0,1-.011,2.034" transform="translate(0 -418.718)" fill="#e59f00" fill-rule="evenodd"/><path d="M45.424,386.018l-.349.011a1.018,1.018,0,0,1-.06-2.035l.349-.01c2.193-.064,4.355-.253,6.441-.428a1.018,1.018,0,1,1,.214,2.025c-2.135.227-4.352.373-6.6.438m13.32-1.466a1.018,1.018,0,0,1-.23-2.015,56.889,56.889,0,0,0,6.555-1.687,1.017,1.017,0,1,1,.615,1.939,62.65,62.65,0,0,1-6.769,1.744Zm13.077-4.2a1.018,1.018,0,0,1-.458-1.941,45.909,45.909,0,0,0,5.889-3.257,1.017,1.017,0,1,1,1.114,1.7,48.337,48.337,0,0,1-6.148,3.4,1.009,1.009,0,0,1-.4.095m11.455-7.536a1.016,1.016,0,0,1-.716-1.768,38.3,38.3,0,0,0,4.53-4.93,1.018,1.018,0,0,1,1.617,1.238,40.324,40.324,0,0,1-4.775,5.195,1,1,0,0,1-.656.265m8.31-10.882a1.007,1.007,0,0,1-.484-.108,1.019,1.019,0,0,1-.456-1.367,33.833,33.833,0,0,0,1.548-3.588,22.381,22.381,0,0,1-5.257-2.562,1.018,1.018,0,1,1,1.13-1.695,20.8,20.8,0,0,0,4.755,2.32c.069-.236.133-.47.2-.706a1.019,1.019,0,0,1,1.97.522c-.1.37-.2.74-.316,1.107a1,1,0,0,1,.057.708,1.016,1.016,0,0,1-.485.612,35.072,35.072,0,0,1-1.779,4.2,1.019,1.019,0,0,1-.88.561m10.924-3.62q-1.009.028-1.993,0a1.019,1.019,0,0,1-.987-1.048.985.985,0,0,1,1.046-.989,32.956,32.956,0,0,0,6.66-.476,1.017,1.017,0,1,1,.338,2.007,37.388,37.388,0,0,1-5.065.506m11.59-2.2a1.015,1.015,0,0,1-.36-1.976,46.139,46.139,0,0,0,6.191-2.65,1.018,1.018,0,1,1,.932,1.81,47.511,47.511,0,0,1-6.462,2.763,1.01,1.01,0,0,1-.3.054m12.228-6.245a1.019,1.019,0,0,1-.609-1.856,56.609,56.609,0,0,0,5.314-4.177,1.018,1.018,0,1,1,1.351,1.523,59.089,59.089,0,0,1-5.507,4.329,1.01,1.01,0,0,1-.548.181m-43.712-.157a1.021,1.021,0,0,1-.86-.425A13.652,13.652,0,0,1,79,342.484a1.009,1.009,0,0,1,.935-1.094,1.032,1.032,0,0,1,1.1.932,11.747,11.747,0,0,0,2.388,5.787,1.015,1.015,0,0,1-.8,1.609m12.34-1.014a1.026,1.026,0,0,1-1.029-1.022c0-.255,0-.51-.008-.762a15.5,15.5,0,0,0-1.092-5.576,1.018,1.018,0,1,1,1.876-.791,17.535,17.535,0,0,1,1.251,6.311c.007.277.011.552.01.829a1.026,1.026,0,0,1-1.007,1.011m-12.3-11.3a1.018,1.018,0,0,1-.61-1.854,7.184,7.184,0,0,1,3.9-1.268,7.912,7.912,0,0,1,3.678.8,1.017,1.017,0,0,1-.877,1.836,5.881,5.881,0,0,0-2.746-.6,5.154,5.154,0,0,0-2.792.906,1.018,1.018,0,0,1-.552.181" transform="translate(-33.752 -256.263)" fill="#e59f00" fill-rule="evenodd"/><path d="M437.708,346.554a1.017,1.017,0,0,1-.788-1.7c.735-.815,1.456-1.667,2.166-2.542a1.018,1.018,0,1,1,1.584,1.28c-.732.9-1.474,1.78-2.235,2.623a1.021,1.021,0,0,1-.727.336" transform="translate(-334.755 -262.139)" fill="#e59f00" fill-rule="evenodd"/></g></svg>