<svg xmlns="http://www.w3.org/2000/svg" width="40" height="41" viewBox="0 0 40 41"><g><g transform="rotate(-180 20 20.5)"><path fill="#fff" d="M22.33 28.775c.783.75.799 2 .033 2.766l-.887.879a1.927 1.927 0 0 1-2.734 0L8.04 21.718a1.928 1.928 0 0 1 0-2.733L18.742 8.29a1.928 1.928 0 0 1 2.734 0l.887.879c.766.766.75 2.016-.032 2.766l-6.09 5.839h14.727a1.93 1.93 0 0 1 1.935 1.935V21a1.93 1.93 0 0 1-1.935 1.936H16.242l6.089 5.839zM40 20.355c0-11.048-8.952-20-20-20s-20 8.952-20 20c0 11.049 8.952 20 20 20s20-8.951 20-20z"/></g></g></svg>