<svg xmlns="http://www.w3.org/2000/svg" xmlns:xlink="http://www.w3.org/1999/xlink" width="111.332" height="111.338" viewBox="0 0 111.332 111.338"><defs><filter id="a" x="0" y="0" width="111.332" height="111.338" filterUnits="userSpaceOnUse"><feOffset dy="3" input="SourceAlpha"/><feGaussianBlur stdDeviation="3" result="b"/><feFlood flood-opacity="0.161"/><feComposite operator="in" in2="b"/><feComposite in="SourceGraphic"/></filter></defs><g transform="translate(9 6)"><g transform="matrix(1, 0, 0, 1, -9, -6)" filter="url(#a)"><path d="M7.366,65.106A45.24,45.24,0,1,1,27.813,85.763L0,93.338Z" transform="translate(9 6)" fill="#fff"/></g><path d="M42.326,2.25A38.5,38.5,0,0,0,3.679,40.6,37.953,37.953,0,0,0,9.225,60.4L2.25,80.975l21.4-6.8A38.713,38.713,0,0,0,80.975,40.6,38.5,38.5,0,0,0,42.326,2.25ZM61.544,55.163c-.909,2.254-5.021,4.311-6.836,4.406s-1.864,1.4-11.746-2.888S27.139,41.947,26.67,41.275,22.843,35.819,23.024,31a10.951,10.951,0,0,1,3.761-8.035,3.785,3.785,0,0,1,2.677-1.127c.778-.013,1.282-.023,1.858,0s1.44-.12,2.188,1.87,2.538,6.88,2.767,7.379a1.791,1.791,0,0,1,.018,1.717,6.712,6.712,0,0,1-1.048,1.6c-.516.553-1.085,1.237-1.545,1.66-.513.468-1.049.979-.51,1.98a29.574,29.574,0,0,0,5.233,6.983,26.965,26.965,0,0,0,7.749,5.152c.969.528,1.547.469,2.148-.163s2.572-2.767,3.268-3.72,1.346-.768,2.239-.409,5.651,2.909,6.62,3.436,1.615.8,1.847,1.213S62.453,52.909,61.544,55.163Z" transform="translate(5.797 4.311)" fill="#7fb221"/></g></svg>